<?xml version="1.0" encoding="utf-8"?>
<!-- Generator: Adobe Illustrator 22.1.0, SVG Export Plug-In . SVG Version: 6.00 Build 0)  -->
<svg version="1.1" id="Layer_1" xmlns="http://www.w3.org/2000/svg" xmlns:xlink="http://www.w3.org/1999/xlink" x="0px" y="0px"
	 viewBox="0 0 890.4 329.4" style="enable-background:new 0 0 890.4 329.4;" xml:space="preserve">
<style type="text/css">
	.st0{fill:none;stroke:#e84a5f;stroke-width:16;stroke-miterlimit:10;}
</style>
<path class="st0" d="M242.3,271.2l33.1,51h-97.9c124.6-244.8,276.8,0,276.8,0H378l-72.9-112.4l-57.4-88.7L293.6,16L349,121.2"/>
<path class="st0" d="M492,139.3c0-44.1,0-88.2,0-132.3h136.3c-0.1-0.3,39.3,7.1,44,49.1v49.1c0.4,59.6-41.3,74.4-95.1,76.3
	c-2.5,0.9-54.6-1.7-85.3,33.3v107.4h58v-77.4"/>
<path class="st0" d="M614.4,248.1c0,0,52.8,28.9,17.5,74.1h17.5h62.9C698,242.5,665,197.5,631.5,172.1
	c-45.9-34.9-92.6-32.8-92.6-32.8V67.8h81.8"/>
<polygon class="st0" points="7.7,164.8 82.5,7 146.3,7.2 71.5,164.8 146.3,322.3 82.5,322.3 "/>
<polygon class="st0" points="882.6,164.7 807.8,322.4 744,322.2 818.8,164.7 744,7.2 807.8,7.1 "/>
</svg>
